<?xml version="1.0" encoding="UTF-8" standalone="no"?>
<!-- Generator: Adobe Illustrator 17.1.0, SVG Export Plug-In . SVG Version: 6.00 Build 0)  -->

<svg
   version="1.1"
   id="Capa_1"
   x="0px"
   y="0px"
   viewBox="0 0 260.366 260.366"
   style="enable-background:new 0 0 260.366 260.366;"
   xml:space="preserve"
   sodipodi:docname="arrow-svgrepo-com.svg"
   inkscape:version="1.1 (c68e22c387, 2021-05-23)"
   xmlns:inkscape="http://www.inkscape.org/namespaces/inkscape"
   xmlns:sodipodi="http://sodipodi.sourceforge.net/DTD/sodipodi-0.dtd"
   xmlns="http://www.w3.org/2000/svg"
   xmlns:svg="http://www.w3.org/2000/svg"><defs
   id="defs37" /><sodipodi:namedview
   id="namedview35"
   pagecolor="#ffffff"
   bordercolor="#666666"
   borderopacity="1.0"
   inkscape:pageshadow="2"
   inkscape:pageopacity="0.0"
   inkscape:pagecheckerboard="0"
   showgrid="false"
   inkscape:zoom="3.2339092"
   inkscape:cx="130.183"
   inkscape:cy="130.33761"
   inkscape:window-width="1920"
   inkscape:window-height="1027"
   inkscape:window-x="-8"
   inkscape:window-y="-8"
   inkscape:window-maximized="1"
   inkscape:current-layer="Capa_1" />
<path
   d="M255.972,189.463l-47.347-47.348l41.082-41.082c3.675-3.675,5.186-8.989,3.993-14.047c-1.191-5.059-4.917-9.14-9.846-10.786  L19.754,1.316c-5.393-1.804-11.341-0.401-15.36,3.62c-4.021,4.021-5.422,9.968-3.62,15.36l74.885,224.101  c1.646,4.929,5.728,8.654,10.786,9.846c5.053,1.193,10.371-0.317,14.047-3.993l42.165-42.165l47.348,47.347  c2.929,2.929,6.768,4.394,10.606,4.394s7.678-1.465,10.606-4.394l44.755-44.755C261.83,204.819,261.83,195.321,255.972,189.463z   M200.611,223.612l-47.348-47.347c-2.929-2.929-6.768-4.394-10.606-4.394s-7.678,1.465-10.606,4.394l-35.624,35.624L38.752,39.294  l172.595,57.674l-34.541,34.541c-5.858,5.857-5.858,15.355,0,21.213l47.347,47.348L200.611,223.612z"
   id="path2"
   style="fill:#000000;fill-opacity:1" />
<g
   id="g4">
</g>
<g
   id="g6">
</g>
<g
   id="g8">
</g>
<g
   id="g10">
</g>
<g
   id="g12">
</g>
<g
   id="g14">
</g>
<g
   id="g16">
</g>
<g
   id="g18">
</g>
<g
   id="g20">
</g>
<g
   id="g22">
</g>
<g
   id="g24">
</g>
<g
   id="g26">
</g>
<g
   id="g28">
</g>
<g
   id="g30">
</g>
<g
   id="g32">
</g>
<path
   style="fill:#000000;fill-opacity:1;stroke-width:38.318;stroke-linecap:round;stroke:#000000;stroke-opacity:1;stroke-miterlimit:4;stroke-dasharray:none"
   d="m 176.25727,198.8633 c -23.68772,-23.64674 -24.49906,-24.41991 -26.7503,-25.49175 -4.55216,-2.16733 -9.11388,-2.17055 -13.60334,-0.01 -2.22046,1.06878 -3.10891,1.90403 -20.87257,19.62262 L 96.477662,211.49087 67.898364,125.92225 C 52.17975,78.859514 39.258366,40.178943 39.184177,39.965428 39.077696,39.658977 210.191,96.551715 210.7197,96.998548 c 0.0763,0.06445 -7.87234,8.148712 -17.66356,17.965012 -11.29533,11.32428 -18.11231,18.38875 -18.65061,19.32772 -2.62177,4.57321 -2.71438,10.25944 -0.24786,15.21817 0.59716,1.20053 6.23919,7.02408 25.242,26.05407 l 24.47294,24.50796 -11.59335,11.5891 -11.59335,11.58911 z"
   id="path1252" /></svg>
