<?xml version="1.0" encoding="iso-8859-1"?>
<!-- Generator: Adobe Illustrator 19.0.0, SVG Export Plug-In . SVG Version: 6.00 Build 0)  -->
<svg version="1.1" id="Layer_1" xmlns="http://www.w3.org/2000/svg" xmlns:xlink="http://www.w3.org/1999/xlink" x="0px" y="0px"
	 viewBox="0 0 455 455" style="enable-background:new 0 0 455 455;" xml:space="preserve">
<g>
	<g>
		<path d="M227.5,0C101.761,0,0,101.75,0,227.5C0,353.239,101.75,455,227.5,455C353.239,455,455,353.25,455,227.5
			C455.001,101.761,353.251,0,227.5,0z M310.759,268.333c11.715,11.716,11.715,30.711,0,42.427
			c-5.858,5.858-13.536,8.787-21.213,8.787s-15.355-2.929-21.213-8.787L227.5,269.927l-40.832,40.832
			c-5.858,5.858-13.536,8.787-21.213,8.787s-15.355-2.929-21.213-8.787c-11.715-11.716-11.715-30.711,0-42.427l40.832-40.832
			l-40.832-40.832c-11.715-11.716-11.715-30.711,0-42.427c11.716-11.716,30.711-11.716,42.427,0l40.832,40.832l40.832-40.832
			c11.716-11.716,30.711-11.716,42.427,0c11.715,11.716,11.715,30.711,0,42.427L269.927,227.5L310.759,268.333z"/>
	</g>
</g>
<g>
</g>
<g>
</g>
<g>
</g>
<g>
</g>
<g>
</g>
<g>
</g>
<g>
</g>
<g>
</g>
<g>
</g>
<g>
</g>
<g>
</g>
<g>
</g>
<g>
</g>
<g>
</g>
<g>
</g>
</svg>
