<?xml version="1.0" encoding="iso-8859-1"?>
<!-- Generator: Adobe Illustrator 16.0.0, SVG Export Plug-In . SVG Version: 6.00 Build 0)  -->
<!DOCTYPE svg PUBLIC "-//W3C//DTD SVG 1.1//EN" "http://www.w3.org/Graphics/SVG/1.1/DTD/svg11.dtd">
<svg version="1.1" id="Capa_1" xmlns="http://www.w3.org/2000/svg" xmlns:xlink="http://www.w3.org/1999/xlink" x="0px" y="0px"
	 width="37.628px" height="37.628px" viewBox="0 0 37.628 37.628" style="enable-background:new 0 0 37.628 37.628;"
	 xml:space="preserve">
<g>
	<path d="M36.895,23.758L25.092,35.562c-0.488,0.487-1.128,0.731-1.77,0.731c-0.211,0-0.419-0.037-0.625-0.089
		c0.418-0.107,0.815-0.315,1.145-0.644l11.803-11.804c0.979-0.977,0.979-2.56,0-3.534L17.488,2.067
		c-0.333-0.333-0.752-0.546-1.199-0.651l0.243-0.043c0.807-0.142,1.629,0.116,2.206,0.694l18.156,18.156
		C37.872,21.199,37.872,22.782,36.895,23.758z M34.228,23.758L22.425,35.562c-0.488,0.487-1.128,0.731-1.77,0.731
		c-0.64,0-1.279-0.244-1.768-0.731L0.732,17.405c-0.578-0.578-0.837-1.401-0.694-2.206L1.822,5.181
		c0.184-1.031,0.992-1.839,2.023-2.023l10.019-1.784c0.807-0.142,1.629,0.116,2.206,0.694l18.156,18.156
		C35.206,21.199,35.206,22.782,34.228,23.758z M9.454,7.193c-0.985-1-2.595-1.012-3.595-0.027s-1.011,2.595-0.026,3.595
		c0.985,0.999,2.594,1.012,3.594,0.026C10.426,9.802,10.438,8.192,9.454,7.193z"/>
</g>
<g>
</g>
<g>
</g>
<g>
</g>
<g>
</g>
<g>
</g>
<g>
</g>
<g>
</g>
<g>
</g>
<g>
</g>
<g>
</g>
<g>
</g>
<g>
</g>
<g>
</g>
<g>
</g>
<g>
</g>
</svg>
