<?xml version="1.0" encoding="UTF-8" standalone="no"?>
<!-- Generator: Adobe Illustrator 18.1.1, SVG Export Plug-In . SVG Version: 6.00 Build 0)  -->

<svg
   version="1.1"
   id="Capa_1"
   x="0px"
   y="0px"
   viewBox="0 0 30.05 30.05"
   style="enable-background:new 0 0 30.05 30.05;"
   xml:space="preserve"
   sodipodi:docname="next.svg"
   inkscape:version="1.1 (c68e22c387, 2021-05-23)"
   xmlns:inkscape="http://www.inkscape.org/namespaces/inkscape"
   xmlns:sodipodi="http://sodipodi.sourceforge.net/DTD/sodipodi-0.dtd"
   xmlns="http://www.w3.org/2000/svg"
   xmlns:svg="http://www.w3.org/2000/svg"><defs
   id="defs73" /><sodipodi:namedview
   id="namedview71"
   pagecolor="#ffffff"
   bordercolor="#666666"
   borderopacity="1.0"
   inkscape:pageshadow="2"
   inkscape:pageopacity="0.0"
   inkscape:pagecheckerboard="0"
   showgrid="false"
   inkscape:zoom="19.851347"
   inkscape:cx="11.938737"
   inkscape:cy="15.79238"
   inkscape:window-width="1920"
   inkscape:window-height="1017"
   inkscape:window-x="-8"
   inkscape:window-y="-8"
   inkscape:window-maximized="1"
   inkscape:current-layer="Capa_1" />
<g
   id="g38"
   transform="rotate(180,15.025,15.025)">
	<path
   d="m 20.814,11 c -0.193,-0.102 -0.43,-0.086 -0.604,0.041 l -2.383,1.73 v -1.258 c 0,-0.217 -0.121,-0.42 -0.32,-0.514 -0.191,-0.102 -0.424,-0.086 -0.602,0.041 l -4.834,3.512 c -0.15,0.109 -0.242,0.287 -0.242,0.473 0,0.184 0.092,0.357 0.242,0.471 l 4.834,3.508 c 0.102,0.076 0.221,0.111 0.342,0.111 0.088,0 0.18,-0.018 0.26,-0.066 0.199,-0.1 0.32,-0.295 0.32,-0.516 v -1.26 l 2.383,1.73 c 0.098,0.076 0.221,0.111 0.34,0.111 0.094,0 0.182,-0.018 0.264,-0.066 0.197,-0.1 0.318,-0.295 0.318,-0.516 v -7.02 C 21.133,11.297 21.012,11.094 20.814,11 Z"
   id="path2" />
	<path
   d="M 15.027,0 C 6.729,0 0,6.729 0,15.025 0,23.326 6.729,30.05 15.027,30.05 23.325,30.05 30.05,23.325 30.05,15.025 30.051,6.729 23.326,0 15.027,0 Z m 0,27.539 C 8.115,27.539 2.509,21.935 2.509,15.025 2.509,8.115 8.115,2.51 15.027,2.51 c 6.914,0 12.516,5.605 12.516,12.516 0,6.911 -5.602,12.513 -12.516,12.513 z"
   id="path4" />
	<path
   d="M 10.617,11.146 H 9.225 c -0.168,0 -0.305,0.137 -0.305,0.305 v 7.146 c 0,0.168 0.137,0.309 0.305,0.309 h 1.393 c 0.17,0 0.307,-0.141 0.307,-0.309 v -7.146 c -0.001,-0.168 -0.138,-0.305 -0.308,-0.305 z"
   id="path6" />
	<g
   id="g8">
	</g>
	<g
   id="g10">
	</g>
	<g
   id="g12">
	</g>
	<g
   id="g14">
	</g>
	<g
   id="g16">
	</g>
	<g
   id="g18">
	</g>
	<g
   id="g20">
	</g>
	<g
   id="g22">
	</g>
	<g
   id="g24">
	</g>
	<g
   id="g26">
	</g>
	<g
   id="g28">
	</g>
	<g
   id="g30">
	</g>
	<g
   id="g32">
	</g>
	<g
   id="g34">
	</g>
	<g
   id="g36">
	</g>
</g>
<g
   id="g40"
   transform="rotate(180,15.025,15.025)">
</g>
<g
   id="g42"
   transform="rotate(180,15.025,15.025)">
</g>
<g
   id="g44"
   transform="rotate(180,15.025,15.025)">
</g>
<g
   id="g46"
   transform="rotate(180,15.025,15.025)">
</g>
<g
   id="g48"
   transform="rotate(180,15.025,15.025)">
</g>
<g
   id="g50"
   transform="rotate(180,15.025,15.025)">
</g>
<g
   id="g52"
   transform="rotate(180,15.025,15.025)">
</g>
<g
   id="g54"
   transform="rotate(180,15.025,15.025)">
</g>
<g
   id="g56"
   transform="rotate(180,15.025,15.025)">
</g>
<g
   id="g58"
   transform="rotate(180,15.025,15.025)">
</g>
<g
   id="g60"
   transform="rotate(180,15.025,15.025)">
</g>
<g
   id="g62"
   transform="rotate(180,15.025,15.025)">
</g>
<g
   id="g64"
   transform="rotate(180,15.025,15.025)">
</g>
<g
   id="g66"
   transform="rotate(180,15.025,15.025)">
</g>
<g
   id="g68"
   transform="rotate(180,15.025,15.025)">
</g>
</svg>
