<?xml version="1.0" encoding="UTF-8" standalone="no"?>
<!-- Generator: Adobe Illustrator 17.1.0, SVG Export Plug-In . SVG Version: 6.00 Build 0)  -->

<svg
   version="1.1"
   id="Capa_1"
   x="0px"
   y="0px"
   viewBox="0 0 260.366 260.366"
   style="enable-background:new 0 0 260.366 260.366;"
   xml:space="preserve"
   sodipodi:docname="noarrow.svg"
   inkscape:version="1.1 (c68e22c387, 2021-05-23)"
   xmlns:inkscape="http://www.inkscape.org/namespaces/inkscape"
   xmlns:sodipodi="http://sodipodi.sourceforge.net/DTD/sodipodi-0.dtd"
   xmlns="http://www.w3.org/2000/svg"
   xmlns:svg="http://www.w3.org/2000/svg"><defs
   id="defs37" /><sodipodi:namedview
   id="namedview35"
   pagecolor="#ffffff"
   bordercolor="#666666"
   borderopacity="1.0"
   inkscape:pageshadow="2"
   inkscape:pageopacity="0.0"
   inkscape:pagecheckerboard="0"
   showgrid="false"
   inkscape:zoom="3.2339092"
   inkscape:cx="148.11795"
   inkscape:cy="169.91819"
   inkscape:window-width="1920"
   inkscape:window-height="1027"
   inkscape:window-x="-8"
   inkscape:window-y="-8"
   inkscape:window-maximized="1"
   inkscape:current-layer="Capa_1" />

<g
   id="g4">
</g>
<g
   id="g6">
</g>
<g
   id="g8">
</g>
<g
   id="g10">
</g>
<g
   id="g12">
</g>
<g
   id="g14">
</g>
<g
   id="g16">
</g>
<g
   id="g18">
</g>
<g
   id="g20">
</g>
<g
   id="g22">
</g>
<g
   id="g24">
</g>
<g
   id="g26">
</g>
<g
   id="g28">
</g>
<g
   id="g30">
</g>
<g
   id="g32">
</g>
<rect
   style="fill:#000000;stroke:#000000;stroke-width:46.339;stroke-linecap:round"
   id="rect859"
   width="0.74869555"
   height="280.91412"
   x="179.77588"
   y="-127.59808"
   rx="12.106069"
   ry="12.080462"
   transform="matrix(0.74419993,0.66795693,-0.68686231,0.72678756,0,0)" /><g
   id="g1327"><path
     d="M255.972,189.463l-47.347-47.348l41.082-41.082c3.675-3.675,5.186-8.989,3.993-14.047c-1.191-5.059-4.917-9.14-9.846-10.786  L19.754,1.316c-5.393-1.804-11.341-0.401-15.36,3.62c-4.021,4.021-5.422,9.968-3.62,15.36l74.885,224.101  c1.646,4.929,5.728,8.654,10.786,9.846c5.053,1.193,10.371-0.317,14.047-3.993l42.165-42.165l47.348,47.347  c2.929,2.929,6.768,4.394,10.606,4.394s7.678-1.465,10.606-4.394l44.755-44.755C261.83,204.819,261.83,195.321,255.972,189.463z   M200.611,223.612l-47.348-47.347c-2.929-2.929-6.768-4.394-10.606-4.394s-7.678,1.465-10.606,4.394l-35.624,35.624L38.752,39.294  l172.595,57.674l-34.541,34.541c-5.858,5.857-5.858,15.355,0,21.213l47.347,47.348L200.611,223.612z"
     id="path2"
     style="fill:#000000;fill-opacity:1" /><path
     style="fill:#000000;stroke:#000000;stroke-width:47.3953;stroke-linecap:round"
     d="M 175.54224,197.81395 C 141.49161,163.76332 143.2267,163.93691 115.08233,191.76514 L 96.477662,210.16082 68.362417,125.87737 C 52.899031,79.521474 40.41104,41.430054 40.611324,41.22977 40.811607,41.029486 78.915195,53.517478 125.28596,68.980863 l 84.31049,28.115246 -17.78399,17.934951 c -19.09866,19.26078 -21.49193,23.16051 -19.17388,31.24308 0.79101,2.75809 8.75682,11.60498 25.8883,28.75178 l 24.74573,24.76783 -11.46147,11.41381 -11.46147,11.41382 z"
     id="path1058" /></g></svg>
