<?xml version="1.0" encoding="iso-8859-1"?>
<!-- Generator: Adobe Illustrator 19.0.0, SVG Export Plug-In . SVG Version: 6.00 Build 0)  -->
<svg version="1.1" id="Capa_1" xmlns="http://www.w3.org/2000/svg" xmlns:xlink="http://www.w3.org/1999/xlink" x="0px" y="0px"
	 viewBox="0 0 490.008 490.008" style="enable-background:new 0 0 490.008 490.008;" xml:space="preserve">
<g>
	<g>
		<g>
			<path d="M156.7,142.865h88.6c11.5,0,20.8-9.4,20.8-20.9s-9.4-20.9-20.8-20.9h-88.6c-11.5,0-20.8,9.4-20.8,20.9
				C135.9,133.465,145.3,142.865,156.7,142.865z"/>
			<path d="M266.1,223.165c0-11.5-9.4-20.9-20.8-20.9h-88.6c-11.5,0-20.8,9.4-20.8,20.9s9.4,20.9,20.8,20.9h88.6
				C256.8,244.065,266.1,234.665,266.1,223.165z"/>
			<ellipse cx="94.2" cy="122.065" rx="20.5" ry="20.5"/>
			<ellipse cx="94.2" cy="223.165" rx="20.5" ry="20.5"/>
		</g>
		<path d="M483.7,258.965l-81.3-81.3c-8.3-8.3-20.8-8.3-29.2,0l-24.3,24.2v-168.5c0-18.4-14.9-33.3-33.3-33.3H33.3
			c-18.4,0-33.3,15-33.3,33.3v281c0,18.4,14.9,33.3,33.3,33.3h169l-4.1,4c-2.1,3.1-4.2,6.3-5.2,10.4l-20.8,102.2
			c-3.9,20.1,10.4,28.2,24,25l102.1-20.9c4.2,0,7.3-2.1,10.4-5.2l175-175.1C487.9,284.065,495.5,272.165,483.7,258.965z M40,307.765
			v-267.7h269v201.5l-66.5,66.1H40V307.765z M283.7,428.965l-65.6,13.6l13.5-65.7l155.2-155.3l53.1,52.1L283.7,428.965z"/>
	</g>
</g>
<g>
</g>
<g>
</g>
<g>
</g>
<g>
</g>
<g>
</g>
<g>
</g>
<g>
</g>
<g>
</g>
<g>
</g>
<g>
</g>
<g>
</g>
<g>
</g>
<g>
</g>
<g>
</g>
<g>
</g>
</svg>
