<?xml version="1.0" encoding="UTF-8" standalone="no"?>
<!-- Generator: Adobe Illustrator 16.0.0, SVG Export Plug-In . SVG Version: 6.00 Build 0)  -->

<svg
   version="1.1"
   id="Capa_1"
   x="0px"
   y="0px"
   width="98.48px"
   height="98.481px"
   viewBox="0 0 98.48 98.481"
   style="enable-background:new 0 0 98.48 98.481;"
   xml:space="preserve"
   sodipodi:docname="invisible.svg"
   inkscape:version="1.1 (c68e22c387, 2021-05-23)"
   xmlns:inkscape="http://www.inkscape.org/namespaces/inkscape"
   xmlns:sodipodi="http://sodipodi.sourceforge.net/DTD/sodipodi-0.dtd"
   xmlns="http://www.w3.org/2000/svg"
   xmlns:svg="http://www.w3.org/2000/svg"><defs
   id="defs45" /><sodipodi:namedview
   id="namedview43"
   pagecolor="#ffffff"
   bordercolor="#666666"
   borderopacity="1.0"
   inkscape:pageshadow="2"
   inkscape:pageopacity="0.0"
   inkscape:pagecheckerboard="0"
   showgrid="false"
   inkscape:zoom="2.9869357"
   inkscape:cx="4.8544735"
   inkscape:cy="41.346722"
   inkscape:window-width="1920"
   inkscape:window-height="1017"
   inkscape:window-x="-8"
   inkscape:window-y="-8"
   inkscape:window-maximized="1"
   inkscape:current-layer="g8" />
<g
   id="g10">
	<g
   id="g8">
		
		
		<g
   id="g843"><path
     d="M69.322,44.716L49.715,64.323C60.438,64.072,69.071,55.438,69.322,44.716z"
     id="path2" /><path
     d="M97.204,45.789c-0.449-0.529-6.245-7.23-15.402-13.554l-6.2,6.2c5.99,3.954,10.559,8.275,13.011,10.806    C83.235,54.795,67.7,68.969,49.241,68.969c-1.334,0-2.651-0.082-3.952-0.222l-7.439,7.438c3.639,0.91,7.449,1.451,11.391,1.451    c26.426,0,47.098-23.927,47.964-24.946C98.906,50.692,98.906,47.79,97.204,45.789z"
     id="path4" /><path
     d="M90.651,15.901c0-0.266-0.104-0.52-0.293-0.707l-7.071-7.07c-0.391-0.391-1.022-0.391-1.414,0L66.045,23.952    c-5.202-1.893-10.855-3.108-16.804-3.108c-26.427,0-47.098,23.926-47.965,24.946c-1.701,2-1.701,4.902,0.001,6.903    c0.517,0.606,8.083,9.354,19.707,16.319l-12.86,12.86c-0.188,0.188-0.293,0.441-0.293,0.707c0,0.267,0.105,0.521,0.293,0.707    l7.071,7.07c0.195,0.194,0.451,0.293,0.707,0.293c0.256,0,0.512-0.099,0.707-0.293l73.75-73.75    C90.546,16.421,90.651,16.167,90.651,15.901z M9.869,49.241C13.5,45.49,21.767,37.812,32.436,33.22    c-2.081,3.166-3.301,6.949-3.301,11.021c0,4.665,1.601,8.945,4.27,12.352l-6.124,6.123C19.129,58.196,12.89,52.361,9.869,49.241z"
     id="path6" /></g>
	</g>
</g>
<g
   id="g12">
</g>
<g
   id="g14">
</g>
<g
   id="g16">
</g>
<g
   id="g18">
</g>
<g
   id="g20">
</g>
<g
   id="g22">
</g>
<g
   id="g24">
</g>
<g
   id="g26">
</g>
<g
   id="g28">
</g>
<g
   id="g30">
</g>
<g
   id="g32">
</g>
<g
   id="g34">
</g>
<g
   id="g36">
</g>
<g
   id="g38">
</g>
<g
   id="g40">
</g>
</svg>
