<?xml version="1.0" encoding="iso-8859-1"?>
<!-- Generator: Adobe Illustrator 18.0.0, SVG Export Plug-In . SVG Version: 6.00 Build 0)  -->
<!DOCTYPE svg PUBLIC "-//W3C//DTD SVG 1.1//EN" "http://www.w3.org/Graphics/SVG/1.1/DTD/svg11.dtd">
<svg version="1.1" id="Capa_1" xmlns="http://www.w3.org/2000/svg" xmlns:xlink="http://www.w3.org/1999/xlink" x="0px" y="0px"
	 viewBox="0 0 458.18 458.18" style="enable-background:new 0 0 458.18 458.18;" xml:space="preserve">
<g>
	<path d="M36.09,5.948c-18.803,0-34.052,15.248-34.052,34.051c0,18.803,15.249,34.052,34.052,34.052
		c18.803,0,34.052-15.25,34.052-34.052C70.142,21.196,54.893,5.948,36.09,5.948z"/>
	<path d="M147.537,80h268.604c22.092,0,40-17.908,40-40s-17.908-40-40-40H147.537c-22.092,0-40,17.908-40,40S125.445,80,147.537,80z
		"/>
	<path d="M36.09,132.008c-18.803,0-34.052,15.248-34.052,34.051s15.249,34.052,34.052,34.052c18.803,0,34.052-15.249,34.052-34.052
		S54.893,132.008,36.09,132.008z"/>
	<path d="M416.142,126.06H147.537c-22.092,0-40,17.908-40,40s17.908,40,40,40h268.604c22.092,0,40-17.908,40-40
		S438.233,126.06,416.142,126.06z"/>
	<path d="M36.09,258.068c-18.803,0-34.052,15.248-34.052,34.051c0,18.803,15.249,34.052,34.052,34.052
		c18.803,0,34.052-15.249,34.052-34.052C70.142,273.316,54.893,258.068,36.09,258.068z"/>
	<path d="M416.142,252.119H147.537c-22.092,0-40,17.908-40,40s17.908,40,40,40h268.604c22.092,0,40-17.908,40-40
		S438.233,252.119,416.142,252.119z"/>
	<path d="M36.09,384.128c-18.803,0-34.052,15.248-34.052,34.051s15.249,34.053,34.052,34.053c18.803,0,34.052-15.25,34.052-34.053
		S54.893,384.128,36.09,384.128z"/>
	<path d="M416.142,378.18H147.537c-22.092,0-40,17.908-40,40s17.908,40,40,40h268.604c22.092,0,40-17.908,40-40
		S438.233,378.18,416.142,378.18z"/>
</g>
<g>
</g>
<g>
</g>
<g>
</g>
<g>
</g>
<g>
</g>
<g>
</g>
<g>
</g>
<g>
</g>
<g>
</g>
<g>
</g>
<g>
</g>
<g>
</g>
<g>
</g>
<g>
</g>
<g>
</g>
</svg>
