<?xml version="1.0" encoding="utf-8"?>
<!-- Generator: Adobe Illustrator 23.0.3, SVG Export Plug-In . SVG Version: 6.00 Build 0)  -->
<svg version="1.1" id="Icons" xmlns="http://www.w3.org/2000/svg" xmlns:xlink="http://www.w3.org/1999/xlink" x="0px" y="0px"
	 viewBox="0 0 32 32" style="enable-background:new 0 0 32 32;" xml:space="preserve">
<style type="text/css">
	.st0{fill:none;stroke:#000000;stroke-width:2;stroke-miterlimit:10;}
	.st1{fill:none;stroke:#000000;stroke-width:2;stroke-linejoin:round;stroke-miterlimit:10;}
	.st2{fill:none;stroke:#000000;stroke-width:2;stroke-linecap:round;stroke-linejoin:round;stroke-miterlimit:10;}
	.st3{fill:none;stroke:#000000;stroke-width:2;stroke-linecap:round;stroke-miterlimit:10;}
	.st4{fill:none;stroke:#000000;stroke-width:2;stroke-linejoin:round;stroke-miterlimit:10;stroke-dasharray:3;}
</style>
<path class="st2" d="M15,17V7c0-1.1-0.9-2-2-2h0c-1.1,0-2,0.9-2,2v13l-3-5.2c-0.6-1-1.8-1.3-2.8-0.6l0,0c-0.7,0.5-1.1,1.4-0.7,2.3
	l0,0c1.6,4.3,4,8.4,7,11.9"/>
<path class="st2" d="M15,17V5c0-1.1,0.9-2,2-2h0c1.1,0,2,0.9,2,2v12"/>
<path class="st2" d="M19,17V7c0-1.1,0.9-2,2-2h0c1.1,0,2,0.9,2,2v10"/>
<path class="st2" d="M23,17V9c0-1.1,0.9-2,2-2h0c1.1,0,2,0.9,2,2v8v0c0,4-0.8,7.9-2.4,11.5"/>
</svg>
