<?xml version="1.0" encoding="iso-8859-1"?>
<!-- Generator: Adobe Illustrator 19.0.0, SVG Export Plug-In . SVG Version: 6.00 Build 0)  -->
<svg version="1.1" id="Layer_1" xmlns="http://www.w3.org/2000/svg" xmlns:xlink="http://www.w3.org/1999/xlink" x="0px" y="0px"
	 viewBox="0 0 330 330" style="enable-background:new 0 0 330 330;" xml:space="preserve">
<g id="XMLID_228_">
	<path id="XMLID_229_" d="M236.95,152.281l-108-67.501c-4.624-2.89-10.453-3.044-15.222-0.4C108.959,87.024,106,92.047,106,97.5v135
		c0,5.453,2.959,10.476,7.728,13.12c2.266,1.256,4.77,1.88,7.271,1.88c2.763,0,5.523-0.763,7.95-2.28l108-67.499
		c4.386-2.741,7.05-7.548,7.05-12.72C244,159.829,241.336,155.022,236.95,152.281z"/>
	<path id="XMLID_230_" d="M165,0C74.019,0,0,74.019,0,165s74.019,165,165,165s165-74.019,165-165S255.981,0,165,0z M165,300
		c-74.44,0-135-60.561-135-135S90.56,30,165,30s135,60.561,135,135S239.439,300,165,300z"/>
</g>
<g>
</g>
<g>
</g>
<g>
</g>
<g>
</g>
<g>
</g>
<g>
</g>
<g>
</g>
<g>
</g>
<g>
</g>
<g>
</g>
<g>
</g>
<g>
</g>
<g>
</g>
<g>
</g>
<g>
</g>
</svg>
