<?xml version="1.0" encoding="iso-8859-1"?>
<!-- Generator: Adobe Illustrator 18.1.1, SVG Export Plug-In . SVG Version: 6.00 Build 0)  -->
<svg version="1.1" id="Capa_1" xmlns="http://www.w3.org/2000/svg" xmlns:xlink="http://www.w3.org/1999/xlink" x="0px" y="0px"
	 viewBox="0 0 30.05 30.05" style="enable-background:new 0 0 30.05 30.05;" xml:space="preserve">
<g>
	<path d="M20.814,11c-0.193-0.102-0.43-0.086-0.604,0.041l-2.383,1.73v-1.258c0-0.217-0.121-0.42-0.32-0.514
		c-0.191-0.102-0.424-0.086-0.602,0.041l-4.834,3.512c-0.15,0.109-0.242,0.287-0.242,0.473c0,0.184,0.092,0.357,0.242,0.471
		l4.834,3.508c0.102,0.076,0.221,0.111,0.342,0.111c0.088,0,0.18-0.018,0.26-0.066c0.199-0.1,0.32-0.295,0.32-0.516v-1.26
		l2.383,1.73c0.098,0.076,0.221,0.111,0.34,0.111c0.094,0,0.182-0.018,0.264-0.066c0.197-0.1,0.318-0.295,0.318-0.516v-7.02
		C21.133,11.297,21.012,11.094,20.814,11z"/>
	<path d="M15.027,0C6.729,0,0,6.729,0,15.025C0,23.326,6.729,30.05,15.027,30.05S30.05,23.325,30.05,15.025
		C30.051,6.729,23.326,0,15.027,0z M15.027,27.539c-6.912,0-12.518-5.604-12.518-12.514S8.115,2.51,15.027,2.51
		c6.914,0,12.516,5.605,12.516,12.516S21.941,27.539,15.027,27.539z"/>
	<path d="M10.617,11.146H9.225c-0.168,0-0.305,0.137-0.305,0.305v7.146c0,0.168,0.137,0.309,0.305,0.309h1.393
		c0.17,0,0.307-0.141,0.307-0.309v-7.146C10.924,11.283,10.787,11.146,10.617,11.146z"/>
	<g>
	</g>
	<g>
	</g>
	<g>
	</g>
	<g>
	</g>
	<g>
	</g>
	<g>
	</g>
	<g>
	</g>
	<g>
	</g>
	<g>
	</g>
	<g>
	</g>
	<g>
	</g>
	<g>
	</g>
	<g>
	</g>
	<g>
	</g>
	<g>
	</g>
</g>
<g>
</g>
<g>
</g>
<g>
</g>
<g>
</g>
<g>
</g>
<g>
</g>
<g>
</g>
<g>
</g>
<g>
</g>
<g>
</g>
<g>
</g>
<g>
</g>
<g>
</g>
<g>
</g>
<g>
</g>
</svg>
