<?xml version="1.0" encoding="utf-8"?>
<!-- Generator: Adobe Illustrator 23.0.3, SVG Export Plug-In . SVG Version: 6.00 Build 0)  -->
<svg version="1.1" id="Icons" xmlns="http://www.w3.org/2000/svg" xmlns:xlink="http://www.w3.org/1999/xlink" x="0px" y="0px"
	 viewBox="0 0 32 32" style="enable-background:new 0 0 32 32;" xml:space="preserve">
<style type="text/css">
	.st0{fill:none;stroke:#000000;stroke-width:2;stroke-linecap:round;stroke-linejoin:round;stroke-miterlimit:10;}
</style>
<polyline class="st0" points="19,19 24,19 24,24 "/>
<polyline class="st0" points="6,23 11,23 11,18 "/>
<path class="st0" d="M24,19.4c-0.7,0.8-1.4,1.6-2.2,2.4c-7,7-15.3,10.2-18.5,7s-0.1-11.5,7-18.5s15.3-10.2,18.5-7
	c1.4,1.4,1.6,3.6,0.8,6.3"/>
<path class="st0" d="M11,22.5c-0.3-0.2-0.5-0.5-0.8-0.8c-7-7-10.2-15.3-7-18.5s11.5-0.1,18.5,7s10.2,15.3,7,18.5
	c-1.7,1.7-4.8,1.6-8.4,0.1"/>
</svg>
